<svg width="18" height="18" fill="none" xmlns="http://www.w3.org/2000/svg"><g clip-path="url(#clip0_5_269)" fill="#52555F"><path d="M16.3081 4.02333L15.9106 2.832c-.1513-.45373-.5744-.75861-1.0526-.75861h-3.3403V.985886C11.5177.442337 11.0758 0 10.5324 0H7.47355c-.54328 0-.98534.442337-.98534.985886V2.07339H3.14809c-.47832 0-.90143.30488-1.05276.75861L1.6979 4.02333c-.0905.27123-.04464.57156.12249.80351s.43753.37052.72345.37052h.41542L3.8736 16.5038C3.94158 17.3427 4.65349 18 5.49463 18h7.20227c.841 0 1.553-.6573 1.6209-1.4963l.9143-11.30634h.23c.2859 0 .5563-.13857.7235-.37038.1671-.23195.213-.53242.1225-.80365zM7.5429 1.05469h2.9202v1.0187H7.5429v-1.0187zm5.7236 15.36401c-.0239.2954-.2741.5266-.5696.5266H5.49463c-.29553 0-.54574-.2312-.56964-.5266L4.01738 5.19736H14.174l-.9075 11.22134zM2.77002 4.14267l.32589-.97696c.00741-.02252.02842-.03763.05218-.03763H14.858c.0238 0 .0446.01511.0522.03763l.3259.97696H2.77002z"/><path d="M11.5846 16.3813c.0093.0006.0185.0007.0279.0007.2786 0 .5115-.2183.5261-.4999l.4952-9.50617c.0151-.29086-.2085-.53902-.4992-.55412-.2916-.01552-.5389.20832-.5541.49919l-.4951 9.5062c-.0151.2909.2083.539.4992.5541zM5.89099 15.8833c.01538.2811.24801.4986.5261.4986.00961 0 .0195-.0003.02925-.0008.29073-.0158.51361-.2644.49782-.5552l-.51869-9.50623c-.01579-.29087-.26436-.51375-.55522-.49782-.29073.01579-.51361.26436-.49782.55522l.51856 9.50623zM9.00891 16.3819c.29128 0 .52734-.236.52734-.5273V6.34839c0-.29128-.23606-.52735-.52734-.52735-.29127 0-.52734.23607-.52734.52735v9.50621c0 .2913.23607.5273.52734.5273z"/></g><defs><clipPath id="clip0_5_269"><path fill="#fff" d="M0 0h18v18H0z"/></clipPath></defs></svg>
